<svg width="95" height="26" viewBox="0 0 95 26" fill="none" xmlns="http://www.w3.org/2000/svg">
<path d="M11.0481 0.25H0.681641V25.0417L11.0481 0.25Z" fill="#4C4C4D"/>
<path d="M18.3418 0.25H28.6947V25.0417L18.3418 0.25Z" fill="#4C4C4D"/>
<path d="M14.6946 9.38751L21.2927 25.0419H16.9637L14.9918 20.0579H10.1631L14.6946 9.38751Z" fill="#4C4C4D"/>
<path d="M45.6077 16.0147L46.83 19.5197C46.8706 19.6074 46.9313 19.648 47.0394 19.648H49.3896C49.5179 19.648 49.5382 19.5872 49.5179 19.4589L44.6622 5.97237C44.642 5.86432 44.6217 5.84406 44.5136 5.84406H41.5962C41.5151 5.84406 41.4679 5.90484 41.4679 5.99263C41.4273 6.70174 41.3666 6.91784 41.2788 7.1272L36.9498 19.4386C36.9296 19.5872 36.9769 19.648 37.0984 19.648H39.1987C39.327 19.648 39.3878 19.6074 39.4351 19.4791L40.5899 16.0147H45.6077ZM41.2585 13.7253C41.8933 11.8073 42.7307 9.34906 43.0684 7.94436H43.0887C43.5074 9.41659 44.4934 12.3341 44.9391 13.7253H41.2585Z" fill="#4C4C4D"/>
<path d="M55.7605 19.8567C57.0233 19.8567 58.3673 19.6271 59.7315 19.0395C59.8395 18.999 59.8598 18.9517 59.8598 18.8504C59.8192 18.4723 59.772 17.9252 59.772 17.5065V4.81016C59.772 4.72912 59.772 4.6886 59.6707 4.6886H57.3813C57.2935 4.6886 57.253 4.72912 57.253 4.83717V9.13908C56.895 9.09856 56.6452 9.0783 56.348 9.0783C52.6539 9.0783 50.3848 11.5163 50.3848 14.562C50.3848 18.0941 52.7147 19.8567 55.7605 19.8567ZM57.253 17.5065C56.8748 17.6281 56.4561 17.6754 56.0306 17.6754C54.3558 17.6754 52.9848 16.7299 52.9848 14.4337C52.9848 12.401 54.3963 11.1989 56.267 11.1989C56.6452 11.1989 56.9761 11.2394 57.253 11.3474V17.5065Z" fill="#4C4C4D"/>
<path d="M67.1612 9.07935C64.0074 9.07935 62.0557 11.4971 62.0557 14.4821C62.0557 17.1496 63.6089 19.8577 67.1139 19.8577C70.0787 19.8577 72.1587 17.6764 72.1587 14.4145C72.1587 11.5376 70.3961 9.07935 67.1612 9.07935ZM67.0329 11.1999C68.8158 11.1999 69.5722 12.7329 69.5722 14.4821C69.5722 16.6431 68.4579 17.7169 67.1612 17.7169C65.5607 17.7169 64.6152 16.373 64.6152 14.4348C64.6152 12.4425 65.6214 11.1999 67.0329 11.1999Z" fill="#4C4C4D"/>
<path d="M74.5265 4.6886C74.4387 4.6886 74.3779 4.72912 74.3779 4.83717V19.2084C74.3779 19.2692 74.4387 19.3772 74.5265 19.3975C75.5328 19.7081 76.5863 19.8567 77.6736 19.8567C80.7869 19.8567 83.8124 17.9252 83.8124 14.0353C83.8124 11.2191 81.8809 9.0783 78.8554 9.0783C78.1598 9.0783 77.5115 9.18635 76.9442 9.37545L76.9172 4.85743C76.9172 4.70886 76.8767 4.6886 76.7281 4.6886H74.5265ZM81.2258 14.2919C81.2258 16.6218 79.6321 17.7159 77.9099 17.7159C77.552 17.7159 77.2346 17.6956 76.9442 17.6078V11.4757C77.2751 11.3474 77.6736 11.2394 78.4097 11.2394C80.071 11.2394 81.2258 12.2929 81.2258 14.2919Z" fill="#4C4C4D"/>
<path d="M92.357 15.0493C93.3835 15.0493 94.2276 15.0291 94.518 14.9615C94.6261 14.9413 94.6666 14.9008 94.6869 14.813C94.7477 14.5834 94.7747 14.1039 94.7747 13.5163C94.7747 11.5173 93.5726 9.07935 90.466 9.07935C87.2919 9.07935 85.5293 11.6659 85.5293 14.5834C85.5293 17.1699 86.8935 19.8577 90.7159 19.8577C92.1476 19.8577 93.0728 19.6281 93.8697 19.2499C93.9508 19.2094 93.9913 19.1419 93.9913 19.0203V17.2712C93.9913 17.1699 93.9305 17.1496 93.8697 17.1902C93.0728 17.5278 92.2084 17.6967 91.2629 17.6967C89.1221 17.6967 88.1496 16.5148 88.0888 15.0493H92.357ZM88.0888 13.2394C88.2577 12.2129 88.906 11.0986 90.358 11.0986C91.9585 11.0986 92.3772 12.4425 92.3772 13.0503C92.3772 13.0706 92.3772 13.1584 92.3772 13.2192C92.2894 13.2394 92.0193 13.2394 91.2224 13.2394H88.0888Z" fill="#4C4C4D"/>
</svg>
